<svg width="140" height="140" viewBox="0 0 140 140" fill="none" xmlns="http://www.w3.org/2000/svg">
<path d="M140 107.072H0V107.142H140V107.072Z" fill="#EBEBEB"/>
<path d="M125.972 111.577H116.698V111.647H125.972V111.577Z" fill="#EBEBEB"/>
<path d="M92.7416 112.339H90.3083V112.409H92.7416V112.339Z" fill="#EBEBEB"/>
<path d="M116.418 108.979H111.045V109.049H116.418V108.979Z" fill="#EBEBEB"/>
<path d="M26.7819 109.449H14.6887V109.519H26.7819V109.449Z" fill="#EBEBEB"/>
<path d="M31.0493 109.449H29.2769V109.519H31.0493V109.449Z" fill="#EBEBEB"/>
<path d="M63.0419 110.631H36.8115V110.701H63.0419V110.631Z" fill="#EBEBEB"/>
<path d="M66.3599 94.584H12.2947C11.8712 94.5833 11.4652 94.4145 11.166 94.1148C10.8668 93.815 10.6987 93.4088 10.6987 92.9852V16.9848C10.7024 16.5637 10.8721 16.1611 11.1709 15.8643C11.4698 15.5676 11.8736 15.4007 12.2947 15.4H66.3599C66.784 15.4 67.1906 15.5685 67.4905 15.8683C67.7903 16.1681 67.9587 16.5748 67.9587 16.9988V92.9852C67.9587 93.4092 67.7903 93.8159 67.4905 94.1158C67.1906 94.4156 66.784 94.584 66.3599 94.584ZM12.2947 15.456C11.8898 15.4568 11.5016 15.6182 11.2155 15.9048C10.9294 16.1914 10.7687 16.5798 10.7687 16.9848V92.9852C10.7687 93.3902 10.9294 93.7786 11.2155 94.0653C11.5016 94.3519 11.8898 94.5133 12.2947 94.514H66.3599C66.7652 94.5133 67.1536 94.352 67.4401 94.0654C67.7267 93.7789 67.888 93.3905 67.8887 92.9852V16.9848C67.888 16.5796 67.7267 16.1912 67.4401 15.9046C67.1536 15.6181 66.7652 15.4568 66.3599 15.456H12.2947Z" fill="#EBEBEB"/>
<path d="M126.927 94.584H72.8588C72.435 94.5833 72.0288 94.4146 71.7291 94.1149C71.4294 93.8153 71.2608 93.409 71.26 92.9852V16.9848C71.2644 16.5635 71.4347 16.1608 71.734 15.8642C72.0333 15.5675 72.4374 15.4007 72.8588 15.4H126.927C127.347 15.4015 127.751 15.5687 128.049 15.8653C128.347 16.162 128.516 16.5642 128.52 16.9848V92.9852C128.52 93.4083 128.352 93.8141 128.054 94.1138C127.755 94.4134 127.35 94.5825 126.927 94.584ZM72.8588 15.456C72.4536 15.4568 72.0651 15.6181 71.7786 15.9046C71.4921 16.1912 71.3307 16.5796 71.33 16.9848V92.9852C71.3307 93.3905 71.4921 93.7789 71.7786 94.0654C72.0651 94.352 72.4536 94.5133 72.8588 94.514H126.927C127.332 94.5133 127.72 94.352 128.007 94.0654C128.294 93.7789 128.455 93.3905 128.456 92.9852V16.9848C128.455 16.5796 128.294 16.1912 128.007 15.9046C127.72 15.6181 127.332 15.4568 126.927 15.456H72.8588Z" fill="#EBEBEB"/>
<path d="M124.376 20.902H78.3301V61.7596H124.376V20.902Z" fill="#E6E6E6"/>
<path d="M123.161 22.022H79.4807V60.662H123.161V22.022Z" fill="#F0F0F0"/>
<path d="M89.7343 22.022L79.4807 60.578V42.462L84.8931 22.022H89.7343Z" fill="white"/>
<path d="M93.3631 22.022L83.0227 60.662H81.3735L91.7139 22.022H93.3631Z" fill="white"/>
<path d="M123.161 46.4044V52.5784L121.069 60.662H119.42L123.161 46.4044Z" fill="white"/>
<path d="M94.7183 21.3276H93.9819V61.5244H94.7183V21.3276Z" fill="#E6E6E6"/>
<path d="M108.976 21.3276H108.24V61.5244H108.976V21.3276Z" fill="#E6E6E6"/>
<path d="M40.0763 84.2941H14.6887V107.061H40.0763V84.2941Z" fill="#F5F5F5"/>
<path d="M23.5255 84.2941H14.6887V107.061H23.5255V84.2941Z" fill="#EBEBEB"/>
<path d="M45.1276 61.9949H19.74V84.7617H45.1276V61.9949Z" fill="#EBEBEB"/>
<path d="M28.5768 61.9949H19.74V84.7617H28.5768V61.9949Z" fill="#E0E0E0"/>
<path d="M40.0763 39.2952H14.6887V62.062H40.0763V39.2952Z" fill="#F5F5F5"/>
<path d="M23.5255 39.2952H14.6887V62.062H23.5255V39.2952Z" fill="#EBEBEB"/>
<path d="M67.704 84.3136H42.3164V107.08H67.704V84.3136Z" fill="#EBEBEB"/>
<path d="M51.1532 84.3136H42.3164V107.08H51.1532V84.3136Z" fill="#E0E0E0"/>
<path d="M70.5153 70.5237H45.1277V84.7841H70.5153V70.5237Z" fill="#F5F5F5"/>
<path d="M53.9645 70.5237H45.1277V84.7841H53.9645V70.5237Z" fill="#E6E6E6"/>
<path d="M59.5589 47.9949H43.1565V70.7617H59.5589V47.9949Z" fill="#EBEBEB"/>
<path d="M48.8657 47.9949H43.1565V70.7617H48.8657V47.9949Z" fill="#E0E0E0"/>
<path d="M97.0228 107.103H122.41V84.336H97.0228V107.103Z" fill="#F5F5F5"/>
<path d="M113.574 107.103H122.41V84.336H113.574V107.103Z" fill="#E6E6E6"/>
<path d="M91.9688 84.8036H117.356V66.2704H91.9688V84.8036Z" fill="#EBEBEB"/>
<path d="M108.522 84.8036H117.359V66.2704H108.522V84.8036Z" fill="#E0E0E0"/>
<path d="M97.9272 66.2704H122.41V57.1984H97.9272V66.2704Z" fill="#F5F5F5"/>
<path d="M113.893 66.2704H122.413V57.1984H113.893V66.2704Z" fill="#E6E6E6"/>
<path d="M69.9999 119.717C99.983 119.717 124.289 118.298 124.289 116.547C124.289 114.797 99.983 113.378 69.9999 113.378C40.0168 113.378 15.7107 114.797 15.7107 116.547C15.7107 118.298 40.0168 119.717 69.9999 119.717Z" fill="#F5F5F5"/>
<path d="M100.201 30.786H92.4083C91.7078 30.786 91.1399 31.3539 91.1399 32.0544V39.1216C91.1399 39.8221 91.7078 40.39 92.4083 40.39H100.201C100.901 40.39 101.469 39.8221 101.469 39.1216V32.0544C101.469 31.3539 100.901 30.786 100.201 30.786Z" fill="#1B7A45"/>
<path d="M95.2952 39.1692C95.2952 39.1692 95.9476 42.3248 100.394 44.0748C100.394 44.0748 97.6752 42.336 97.8432 39.1692H95.2952Z" fill="#1B7A45"/>
<path d="M94.0686 35.3165L95.5442 37.3661L98.5402 33.8129" stroke="white" stroke-width="3" stroke-linecap="round" stroke-linejoin="round"/>
<path d="M109.909 41.8376C111.278 42.8204 112.515 44.5004 111.589 49.2044C110.662 53.9084 110.427 55.0284 110.427 55.0284L101.467 54.0204C101.467 54.0204 101.047 49.8568 101.747 45.9396C102.693 40.88 105.899 38.9564 109.909 41.8376Z" fill="#263238"/>
<path d="M100.94 67.8301C100.94 67.8301 97.9048 84.0001 97.0956 90.6445C96.0372 99.3077 91.7112 111.98 91.7112 111.98L93.4416 112.428C93.4416 112.428 99.54 101.657 100.722 91.9689C105.566 82.0653 105.958 69.8685 105.958 69.8685L100.94 67.8301Z" fill="#EEC1BB"/>
<path d="M88.48 115.9C88.7596 115.772 89.0605 115.696 89.3676 115.676C89.3676 115.676 90.4316 115.049 91.4844 112.619H92.6716C92.8718 112.622 93.0663 112.686 93.229 112.802C93.3917 112.919 93.5147 113.083 93.5816 113.271C93.6011 113.324 93.6124 113.38 93.6152 113.436C93.602 113.718 93.5712 113.999 93.5228 114.276C93.3492 115.223 93.1182 116.158 92.8312 117.076L92.6296 117.023L92.9936 115.256C93.1168 114.654 92.484 115.234 92.1928 115.842C91.9016 116.449 91.462 117.04 90.16 116.76C88.6256 116.396 88.0124 116.175 88.48 115.9Z" fill="#263238"/>
<path d="M93.6264 113.294C93.8504 112.72 94.136 111.692 94.136 111.692L91.5964 111.339C91.5964 111.339 91.5964 112.588 91.126 113.406C92.4532 113.4 93.6264 113.294 93.6264 113.294Z" fill="#263238"/>
<path d="M104.09 67.5724C104.09 67.5724 104.468 84.0224 105.048 90.6864C105.806 99.3832 104.194 112.678 104.194 112.678L105.98 112.756C105.98 112.756 109.718 100.957 108.878 91.2296C111.569 80.5392 109.438 68.5272 109.438 68.5272L104.09 67.5724Z" fill="#EEC1BB"/>
<path d="M101.416 116.444C101.681 116.285 101.972 116.175 102.276 116.122C102.276 116.122 103.264 115.385 104.051 112.854L105.227 112.72C105.428 112.701 105.629 112.744 105.804 112.845C105.979 112.945 106.119 113.097 106.204 113.28C106.229 113.33 106.246 113.384 106.255 113.439C106.273 113.725 106.273 114.013 106.255 114.299C106.182 115.254 106.052 116.204 105.865 117.144L105.661 117.116L105.832 115.318C105.888 114.708 105.325 115.352 105.098 115.987C104.871 116.623 104.491 117.275 103.158 117.107C101.607 116.92 100.971 116.76 101.416 116.444Z" fill="#263238"/>
<path d="M106.24 113.294C106.4 112.7 106.574 111.647 106.574 111.647L104.012 111.572C104.012 111.572 104.146 112.812 103.768 113.677C105.084 113.523 106.24 113.294 106.24 113.294Z" fill="#263238"/>
<path d="M100.293 65.1309L96.9641 88.1525C96.9641 88.1525 107.806 89.8325 112.146 88.8497C112.146 88.8497 113.213 75.5581 108.682 65.8897L100.293 65.1309Z" fill="#263238"/>
<path d="M90.2722 56.9912L87.3742 54.1296C87.3742 54.1296 87.2762 53.3624 86.9934 53.1496C86.7106 52.9368 84.7282 52.2144 84.4734 52.374C84.2186 52.5336 83.891 54.1408 84.2326 54.4348C84.5742 54.7288 86.3802 55.104 86.565 55.0732L89.7094 58.8L90.2722 56.9912Z" fill="#EEC1BB"/>
<path d="M100.643 51.7748C99.3944 52.4384 94.9592 58.6376 94.3068 58.9428C93.6544 59.248 88.662 55.202 88.662 55.202L87.822 56.6384C87.822 56.6384 91.9156 62.44 94.2312 62.16C96.5468 61.88 100.979 56.98 100.979 56.98L100.643 51.7748Z" fill="#1B7A45"/>
<path opacity="0.1" d="M100.643 51.7748C99.3944 52.4384 94.9592 58.6376 94.3068 58.9428C93.6544 59.248 88.662 55.202 88.662 55.202L87.822 56.6384C87.822 56.6384 91.9156 62.44 94.2312 62.16C96.5468 61.88 100.979 56.98 100.979 56.98L100.643 51.7748Z" fill="white"/>
<path d="M88.9364 55.356L88.5892 55.0284L87.6792 56.5684L88.0068 57.1984L88.9364 55.356Z" fill="#1B7A45"/>
<path opacity="0.2" d="M99.1985 58.7749C100.234 57.7865 100.979 56.9661 100.979 56.9661L100.901 55.7341L100.52 54.5385C99.9829 55.0914 99.5834 55.763 99.3538 56.499C99.1242 57.2349 99.071 58.0145 99.1985 58.7749Z" fill="black"/>
<path d="M100.223 64.8956C99.8732 58.7356 100.03 55.342 100.19 53.648C100.366 51.842 100.643 51.7748 100.643 51.7748C100.643 51.7748 102.603 51.5844 104.303 51.5984C105.618 51.643 106.928 51.7814 108.223 52.0128C109.456 52.2173 110.672 52.5102 111.863 52.8892C111.664 53.4492 111.485 54.0092 111.317 54.502C111.096 55.1712 110.897 55.79 110.715 56.3696C110.379 57.4504 110.116 58.3856 109.908 59.2228C109.373 61.3309 109.061 63.4894 108.976 65.6628C108.976 65.6628 111.129 71.2908 111.549 75.4208L104.409 76.1908L103.429 72.0608L102.449 76.3308L98.4592 74.9308L100.223 64.8956Z" fill="#1B7A45"/>
<path opacity="0.1" d="M100.223 64.8956C99.8732 58.7356 100.03 55.342 100.19 53.648C100.366 51.842 100.643 51.7748 100.643 51.7748C100.643 51.7748 102.603 51.5844 104.303 51.5984C105.618 51.643 106.928 51.7814 108.223 52.0128C109.456 52.2173 110.672 52.5102 111.863 52.8892C111.664 53.4492 111.485 54.0092 111.317 54.502C111.096 55.1712 110.897 55.79 110.715 56.3696C110.379 57.4504 110.116 58.3856 109.908 59.2228C109.373 61.3309 109.061 63.4894 108.976 65.6628C108.976 65.6628 111.129 71.2908 111.549 75.4208L104.409 76.1908L103.429 72.0608L102.449 76.3308L98.4592 74.9308L100.223 64.8956Z" fill="white"/>
<path opacity="0.2" d="M109.561 60.732C109.657 60.2616 109.769 59.7604 109.906 59.2228C109.993 58.8812 110.088 58.5228 110.186 58.142C109.906 57.1872 109.626 57.9348 109.626 57.9348C109.452 58.8575 109.43 59.8023 109.561 60.732Z" fill="black"/>
<path d="M104.401 51.9737C104.487 51.93 104.576 51.8917 104.667 51.8589C104.868 51.6993 105.115 51.3157 105.104 50.3833C105.094 50.0136 105.06 49.645 105 49.2801L107.596 48.7957C107.596 48.7957 106.711 50.5429 107.447 51.8421C107.702 51.9541 107.853 52.1221 107.825 52.3265C107.632 53.8245 104.406 55.2749 104.406 55.2749C104.406 55.2749 102.836 52.8333 104.401 51.9737Z" fill="#EEC1BB"/>
<path opacity="0.2" d="M105 49.2801C105.059 49.6423 105.092 50.008 105.101 50.3749C106.854 50.3749 107.596 48.7957 107.596 48.7957L105 49.2801Z" fill="black"/>
<path d="M106.436 42.0308C104.18 41.9076 103.387 43.0752 103.096 45.3908C102.729 48.286 103.261 50.386 106.117 49.9212C109.995 49.28 110.186 42.2352 106.436 42.0308Z" fill="#EEC1BB"/>
<path d="M104.56 45.36C104.361 45.687 104.123 45.9888 103.852 46.2588C103.914 46.3546 104.001 46.4314 104.104 46.4808C104.207 46.5303 104.321 46.5503 104.434 46.5388L104.56 45.36Z" fill="#D4827D"/>
<path d="M105.952 45.2368C105.952 45.4216 106.025 45.5812 106.148 45.5896C106.271 45.598 106.383 45.458 106.4 45.2732C106.417 45.0884 106.325 44.9288 106.201 44.9204C106.078 44.912 105.966 45.052 105.952 45.2368Z" fill="#263238"/>
<path d="M106.252 44.9316L105.863 44.744C105.863 44.744 106.036 45.0968 106.252 44.9316Z" fill="#263238"/>
<path d="M103.653 45.0184C103.639 45.2032 103.726 45.36 103.849 45.3712C103.973 45.3824 104.087 45.2396 104.101 45.052C104.115 44.8644 104.026 44.7104 103.903 44.6992C103.779 44.688 103.667 44.8336 103.653 45.0184Z" fill="#263238"/>
<path d="M103.953 44.7132L103.564 44.5228C103.564 44.5228 103.737 44.8784 103.953 44.7132Z" fill="#263238"/>
<path d="M106.061 43.68C106.24 43.6679 106.42 43.6973 106.586 43.7657C106.752 43.8342 106.9 43.9399 107.019 44.0748" stroke="#263238" stroke-width="0.686238" stroke-linecap="round" stroke-linejoin="round"/>
<path d="M104.44 43.4953C104.288 43.4474 104.127 43.4346 103.97 43.4578C103.812 43.4811 103.662 43.5399 103.53 43.6297" stroke="#263238" stroke-width="0.686238" stroke-linecap="round" stroke-linejoin="round"/>
<path d="M108.696 45.9704C108.696 45.9704 107.741 44.058 107.979 42.6356C107.979 42.6356 103.609 40.5636 103.138 45.0884C103.138 45.0884 102.923 41.034 106.806 41.1684C110.69 41.3028 110.362 46.9672 108.268 48.5492C108.268 48.538 109.284 47.166 108.696 45.9704Z" fill="#263238"/>
<path d="M108.301 46.4268C108.339 46.1671 108.478 45.9327 108.688 45.7753C108.898 45.6178 109.161 45.55 109.421 45.5868C110.116 45.7016 110.37 47.1576 108.612 47.4068C108.36 47.4348 108.228 47.1828 108.301 46.4268Z" fill="#EEC1BB"/>
<path d="M106.196 47.0596C106.025 47.2281 105.822 47.3612 105.6 47.451C105.377 47.5409 105.139 47.5858 104.899 47.5832" stroke="#263238" stroke-width="0.686238" stroke-linecap="round" stroke-linejoin="round"/>
<path d="M107.979 42.6356C107.979 42.6356 103.102 41.3672 102.693 45.9396" stroke="#263238" stroke-width="0.686238" stroke-linecap="round" stroke-linejoin="round"/>
<path d="M103.628 53.0852C103.628 53.0852 103.256 56.7924 103.866 60.1664C103.866 60.1664 105.305 54.9528 107.327 53.1804L105.003 53.5136L103.628 53.0852Z" fill="#1B7A45"/>
<path opacity="0.5" d="M103.628 53.0852C103.628 53.0852 103.256 56.7924 103.866 60.1664C103.866 60.1664 105.305 54.9528 107.327 53.1804L105.003 53.5136L103.628 53.0852Z" fill="white"/>
<path d="M107.361 51.436L105 53.1804V51.3268C105 51.3268 103.093 52.0184 103.228 54.1268L104.793 53.4072V54.1268L105.16 53.4324L106.397 54.8464C106.397 54.8464 107.912 53.0796 108.077 52.5476C108.243 52.0156 107.361 51.436 107.361 51.436Z" fill="#1B7A45"/>
<path opacity="0.7" d="M107.361 51.436L105 53.1804V51.3268C105 51.3268 103.093 52.0184 103.228 54.1268L104.793 53.4072V54.1268L105.16 53.4324L106.397 54.8464C106.397 54.8464 107.912 53.0796 108.077 52.5476C108.243 52.0156 107.361 51.436 107.361 51.436Z" fill="white"/>
<path d="M109.825 67.7936L107.657 57.4532C107.635 57.345 107.576 57.2478 107.49 57.1779C107.405 57.1081 107.297 57.0698 107.187 57.0696H100.52C100.471 57.0696 100.423 57.0804 100.378 57.1012C100.334 57.122 100.294 57.1523 100.263 57.1899C100.231 57.2276 100.209 57.2716 100.196 57.319C100.183 57.3665 100.181 57.4161 100.19 57.4644L101.996 67.5892C102.014 67.6983 102.071 67.7976 102.154 67.8701C102.238 67.9426 102.344 67.9838 102.455 67.9868L109.503 68.1968C109.552 68.1957 109.6 68.1839 109.644 68.1621C109.688 68.1402 109.727 68.109 109.758 68.0705C109.789 68.0321 109.811 67.9873 109.822 67.9395C109.834 67.8916 109.834 67.8418 109.825 67.7936Z" fill="#263238"/>
<path opacity="0.1" d="M109.825 67.7936L107.657 57.4532C107.635 57.345 107.576 57.2478 107.49 57.1779C107.405 57.1081 107.297 57.0698 107.187 57.0696H100.52C100.471 57.0696 100.423 57.0804 100.378 57.1012C100.334 57.122 100.294 57.1523 100.263 57.1899C100.231 57.2276 100.209 57.2716 100.196 57.319C100.183 57.3665 100.181 57.4161 100.19 57.4644L101.996 67.5892C102.014 67.6983 102.071 67.7976 102.154 67.8701C102.238 67.9426 102.344 67.9838 102.455 67.9868L109.503 68.1968C109.552 68.1957 109.6 68.1839 109.644 68.1621C109.688 68.1402 109.727 68.109 109.758 68.0705C109.789 68.0321 109.811 67.9873 109.822 67.9395C109.834 67.8916 109.834 67.8418 109.825 67.7936Z" fill="white"/>
<path d="M112.706 64.4448L109.259 62.272C109.259 62.272 108.996 61.5468 108.676 61.3984C108.357 61.25 106.263 60.9728 106.058 61.1828C105.854 61.3928 105.871 63.0308 106.268 63.2464C106.666 63.462 108.508 63.4368 108.682 63.3668L112.543 66.3236L112.706 64.4448Z" fill="#EEC1BB"/>
<path d="M111.863 52.8892C111.863 52.8892 109.623 56.1596 109.939 58.9596L112.927 63.9044L110.919 62.8796L110.009 64.5932C110.009 64.5932 112.319 68.152 115.259 67.312C118.199 66.472 111.863 52.8892 111.863 52.8892Z" fill="#1B7A45"/>
<path opacity="0.1" d="M111.863 52.8892C111.863 52.8892 109.623 56.1596 109.939 58.9596L112.927 63.9044L110.919 62.8796L110.009 64.5932C110.009 64.5932 112.319 68.152 115.259 67.312C118.199 66.472 111.863 52.8892 111.863 52.8892Z" fill="white"/>
<path d="M111.129 62.7845L109.987 64.9097L109.729 64.3021L110.639 62.5745L111.129 62.7845Z" fill="#1B7A45"/>
<path d="M106.96 57.0696C106.697 57.0696 106.697 63.9576 106.697 63.9576L100.677 63.784C100.677 63.784 99.9993 57.96 100.677 57.064L106.96 57.0696Z" fill="white"/>
<path opacity="0.1" d="M106.96 57.0696C106.697 57.0696 106.697 63.9576 106.697 63.9576L100.677 63.784C100.677 63.784 99.9993 57.96 100.677 57.064L106.96 57.0696Z" fill="black"/>
<path d="M82.096 51.6124L87.7884 54.0064C87.8192 54.0198 87.847 54.0391 87.8702 54.0633C87.8935 54.0874 87.9118 54.1159 87.924 54.1471C87.9362 54.1783 87.9421 54.2116 87.9415 54.2452C87.9408 54.2787 87.9335 54.3117 87.92 54.3424C87.8936 54.4029 87.8443 54.4504 87.7829 54.4746C87.7215 54.4987 87.653 54.4975 87.5924 54.4712L81.8636 52.0436L81.8104 52.0156L81.144 51.52L82.0204 51.5956C82.0464 51.5972 82.0719 51.6029 82.096 51.6124Z" fill="#263238"/>
<path d="M63.2102 63.4115L57.6802 63.9043L55.4626 62.6527C55.4626 62.6527 48.3506 58.6907 46.5026 57.4391C45.9426 57.0555 45.419 56.2211 44.9682 55.2411C44.5899 54.4008 44.2645 53.5376 43.9938 52.6567C43.8678 52.2619 43.7558 51.8839 43.6606 51.5367C43.4478 50.7891 43.3162 50.2291 43.2798 50.0779C43.2814 50.0658 43.2814 50.0536 43.2798 50.0415H43.2938L45.0466 49.4815L46.511 49.0167C46.511 49.0167 46.5782 49.3639 46.693 49.8931L46.7938 50.3607C46.8246 50.4951 46.8554 50.6407 46.889 50.7863C47.2586 52.4159 47.827 54.6391 48.2386 55.0031C48.9022 55.5883 57.2462 61.2751 57.543 61.4235C57.8398 61.5719 60.497 61.4235 60.497 61.4235L63.2102 63.4115Z" fill="#E4897B"/>
<path d="M43.235 42.1903C45.783 42.1511 47.4042 50.0471 47.4042 50.0471L44.0442 51.7271C43.0897 50.0746 42.5921 48.1979 42.6022 46.2895C42.6806 43.2599 43.235 42.1903 43.235 42.1903Z" fill="#1B7A45"/>
<path opacity="0.5" d="M43.235 42.1903C45.783 42.1511 47.4042 50.0471 47.4042 50.0471L44.0442 51.7271C43.0897 50.0746 42.5921 48.1979 42.6022 46.2895C42.6806 43.2599 43.235 42.1903 43.235 42.1903Z" fill="white"/>
<path d="M47.7764 50.2011L46.8692 50.7891L45.6848 51.5563L43.9824 52.6567L43.6772 52.8555L43.3076 51.7327L43.6492 51.5479L43.8732 51.4247L45.43 50.5763L46.6732 49.8959L47.2948 49.5571L47.404 49.4983L47.7764 50.2011Z" fill="#1B7A45"/>
<path opacity="0.2" d="M45.8362 52.8556C45.8414 53.7309 45.529 54.5785 44.957 55.2412C44.5787 54.4008 44.2532 53.5377 43.9826 52.6568L43.6774 52.8556L43.3078 51.7356L43.6494 51.5508C43.4366 50.8032 43.305 50.2432 43.2686 50.092V50.0472L43.6718 46.9672C44.2008 47.7623 44.6527 48.6061 45.0214 49.4872C45.167 49.8316 45.3014 50.1984 45.4246 50.5792C45.4675 50.7098 45.5067 50.8442 45.5422 50.9824C45.5954 51.1728 45.6402 51.366 45.6794 51.5592C45.7704 51.9857 45.8228 52.4196 45.8362 52.8556Z" fill="black"/>
<path d="M42.854 114.621L45.1976 114.87L45.6372 109.816L43.2936 109.567L42.854 114.621Z" fill="#E4897B"/>
<path d="M31.1641 114.45H33.4321L33.6197 109.192H31.3489L31.1641 114.45Z" fill="#E4897B"/>
<path d="M33.7485 114.187H30.9905C30.9454 114.188 30.9018 114.203 30.8668 114.232C30.8318 114.26 30.8073 114.3 30.7973 114.344L30.3493 116.365C30.3399 116.408 30.339 116.453 30.3469 116.496C30.3548 116.539 30.3712 116.581 30.3951 116.618C30.4191 116.655 30.4501 116.687 30.4865 116.711C30.5228 116.736 30.5638 116.754 30.6069 116.763C30.631 116.767 30.6556 116.767 30.6797 116.763C31.5729 116.763 32.2225 116.696 33.3425 116.696C34.0341 116.696 36.1173 116.766 37.0693 116.766C38.0213 116.766 38.1473 115.825 37.7553 115.738C36.0053 115.357 34.6753 114.828 34.1153 114.338C34.0156 114.244 33.8851 114.191 33.7485 114.187Z" fill="#263238"/>
<path d="M33.9052 114.503C33.8942 114.5 33.8843 114.494 33.8768 114.486C33.8693 114.477 33.8646 114.467 33.8632 114.456C33.8619 114.446 33.8636 114.435 33.8681 114.427C33.8726 114.418 33.8797 114.41 33.8884 114.405C33.9696 114.352 34.7032 113.901 34.9552 114.033C34.9838 114.045 35.008 114.066 35.0245 114.093C35.041 114.119 35.0491 114.15 35.0476 114.181C35.0532 114.233 35.0459 114.286 35.0264 114.335C35.0069 114.384 34.9757 114.427 34.9356 114.461C34.8079 114.549 34.6536 114.591 34.4988 114.579C34.2987 114.576 34.0996 114.551 33.9052 114.503ZM34.0592 114.428C34.3244 114.518 34.614 114.503 34.8684 114.386C34.895 114.361 34.9154 114.331 34.9281 114.298C34.9407 114.264 34.9452 114.228 34.9412 114.192C34.9412 114.15 34.9216 114.131 34.9048 114.131C34.8844 114.119 34.8609 114.114 34.8376 114.117C34.5605 114.169 34.2962 114.275 34.0592 114.428Z" fill="#1B7A45"/>
<path d="M33.88 114.52C33.8719 114.514 33.8653 114.507 33.8609 114.498C33.8565 114.489 33.8544 114.479 33.8548 114.47C33.8548 114.439 33.9136 113.786 34.1768 113.574C34.2071 113.546 34.2432 113.525 34.2824 113.513C34.3216 113.501 34.363 113.498 34.4036 113.504C34.4442 113.503 34.4837 113.517 34.5153 113.543C34.5469 113.568 34.5688 113.604 34.5772 113.644C34.622 113.884 34.1684 114.383 33.936 114.512H33.9108C33.9015 114.517 33.8908 114.52 33.88 114.52ZM34.244 113.635C34.0811 113.839 33.9835 114.086 33.964 114.346C34.1992 114.17 34.4876 113.786 34.4596 113.644C34.4596 113.63 34.4596 113.59 34.3812 113.59H34.356C34.3184 113.593 34.2824 113.607 34.2524 113.63L34.244 113.635Z" fill="#1B7A45"/>
<path d="M45.444 114.117H42.686C42.6412 114.117 42.5977 114.132 42.5626 114.16C42.5275 114.188 42.5029 114.227 42.4928 114.271L42.0448 116.292C42.0265 116.379 42.0433 116.47 42.0916 116.544C42.1399 116.619 42.2157 116.671 42.3024 116.69H42.378C43.2684 116.673 43.918 116.62 45.0408 116.62C45.7296 116.62 47.8128 116.693 48.7648 116.693C49.7168 116.693 49.8428 115.749 49.4536 115.662C47.7036 115.281 46.3736 114.755 45.8136 114.262C45.7123 114.17 45.5809 114.118 45.444 114.117Z" fill="#263238"/>
<path d="M45.6008 114.43C45.5898 114.428 45.5799 114.422 45.5724 114.413C45.5649 114.405 45.5602 114.394 45.5588 114.383C45.5574 114.372 45.5593 114.362 45.5643 114.353C45.5694 114.344 45.5773 114.337 45.5868 114.332C45.668 114.279 46.4016 113.828 46.6508 113.96C46.679 113.973 46.7028 113.994 46.7192 114.02C46.7356 114.047 46.7439 114.077 46.7432 114.108C46.7491 114.161 46.7419 114.214 46.7224 114.262C46.7028 114.311 46.6715 114.355 46.6312 114.388C46.5062 114.479 46.3544 114.526 46.2 114.52C45.9975 114.513 45.7965 114.483 45.6008 114.43ZM45.7548 114.355C46.02 114.443 46.3086 114.429 46.564 114.316C46.5908 114.292 46.6114 114.262 46.624 114.228C46.6367 114.194 46.6411 114.158 46.6368 114.122C46.6368 114.078 46.6172 114.058 46.6032 114.058C46.5819 114.046 46.5574 114.041 46.5332 114.044C46.2565 114.098 45.9924 114.203 45.7548 114.355Z" fill="#1B7A45"/>
<path d="M45.5868 114.442C45.5786 114.437 45.5718 114.43 45.5669 114.421C45.562 114.413 45.5593 114.404 45.5588 114.394C45.5588 114.36 45.6176 113.708 45.8808 113.495C45.9112 113.468 45.9473 113.447 45.9865 113.435C46.0256 113.423 46.067 113.42 46.1076 113.425C46.1487 113.425 46.1884 113.439 46.2201 113.465C46.2518 113.491 46.2734 113.528 46.2812 113.568C46.3288 113.806 45.8752 114.307 45.64 114.433H45.6148C45.6065 114.439 45.5968 114.441 45.5868 114.442ZM45.9508 113.557C45.7868 113.759 45.689 114.008 45.6708 114.268C45.9032 114.092 46.1916 113.708 46.1636 113.568C46.1636 113.551 46.1636 113.512 46.0852 113.512H46.06C46.0198 113.515 45.9815 113.53 45.9508 113.557Z" fill="#1B7A45"/>
<path opacity="0.2" d="M43.2936 109.567L45.6372 109.816L45.4076 112.423L43.064 112.174L43.2936 109.567Z" fill="black"/>
<path opacity="0.2" d="M31.349 109.194H33.6198L33.5218 111.908H31.251L31.349 109.194Z" fill="black"/>
<path d="M32.284 63.0615H44.324C45.4692 69.3195 49.056 91.4591 46.4828 111.185L42.4032 110.678C42.4032 110.678 42.7812 84.4899 39.1804 74.8103C38.766 79.9903 38.2732 85.5035 37.8476 88.4379C36.8088 95.6563 34.566 111.44 34.566 111.44H30.4136C30.4136 111.44 31.2536 96.3367 31.654 89.2387C32.0824 81.5331 32.27 64.6435 32.284 63.0615Z" fill="#1B7A45"/>
<path opacity="0.2" d="M39.2002 74.8104C39.7937 76.5076 40.2442 78.2516 40.547 80.024C40.883 75.4124 39.5362 70.5236 39.5362 70.5236L39.2002 74.8104Z" fill="black"/>
<path d="M46.9617 112.134L41.9133 111.384L42.0673 109.987L47.3173 110.676L46.9617 112.134Z" fill="#1B7A45"/>
<path opacity="0.6" d="M46.9617 112.134L41.9133 111.384L42.0673 109.987L47.3173 110.676L46.9617 112.134Z" fill="white"/>
<path d="M35.0644 111.471H30.1672V110.006L35.2492 109.911L35.0644 111.471Z" fill="#1B7A45"/>
<path opacity="0.6" d="M35.0644 111.471H30.1672V110.006L35.2492 109.911L35.0644 111.471Z" fill="white"/>
<path d="M32.2617 65.1559L32.2505 63.4115L44.5313 62.6527L44.6181 64.3439L32.2617 65.1559Z" fill="#263238"/>
<path d="M35.3696 62.9691H34.8152V65.5255H35.3696V62.9691Z" fill="#1B7A45"/>
<path d="M43.8564 62.1201L43.3035 62.1604L43.4894 64.71L44.0423 64.6697L43.8564 62.1201Z" fill="#1B7A45"/>
<path d="M44.5202 62.6527L32.2506 63.5599C32.2506 62.4847 32.2226 61.2863 32.1414 60.0207C31.9902 57.6827 31.7018 55.1235 31.3798 52.7239C30.6966 47.6251 29.8594 43.2487 29.8594 43.2487C35.5714 41.8067 43.235 42.1819 43.235 42.1819C45.2258 49.6411 44.5202 62.6527 44.5202 62.6527Z" fill="#1B7A45"/>
<path opacity="0.6" d="M44.5202 62.6527L32.2506 63.5599C32.2506 62.4847 32.2226 61.2863 32.1414 60.0207C31.9902 57.6827 31.7018 55.1235 31.3798 52.7239C30.6966 47.6251 29.8594 43.2487 29.8594 43.2487C35.5714 41.8067 43.235 42.1819 43.235 42.1819C45.2258 49.6411 44.5202 62.6527 44.5202 62.6527Z" fill="white"/>
<path d="M34.219 42.4844C35.339 43.4896 38.0354 43.12 38.0354 43.12C38.0354 43.12 39.7154 42.6552 39.371 42.126C38.3742 41.9636 37.8926 41.4988 37.691 40.9024C37.5803 40.5343 37.546 40.1474 37.5902 39.7656C37.6056 39.5522 37.6337 39.34 37.6742 39.13L34.3142 36.6492C34.765 38.2872 35.3026 41.2972 34.219 42.4844Z" fill="#E4897B"/>
<path opacity="0.2" d="M35.1008 38.2256C35.2324 40.236 36.8844 40.7904 37.6936 40.9024C37.583 40.5343 37.5487 40.1474 37.5928 39.7656L35.1008 38.2256Z" fill="black"/>
<path d="M40.8802 31.8723C41.695 32.6451 41.3562 34.9999 39.6958 36.2039C38.0354 37.4079 38.0354 31.5839 38.0354 31.5839C38.0354 31.5839 40.3622 31.3795 40.8802 31.8723Z" fill="#263238"/>
<path d="M34.8741 38.6904C35.2222 39.2058 35.7299 39.5926 36.3193 39.7914C36.9086 39.9902 37.5469 39.99 38.1361 39.7908C38.9023 39.5481 39.5471 39.0224 39.9393 38.3208C39.9947 38.2235 40.0451 38.1235 40.0905 38.0212C40.9081 36.12 41.1601 32.76 39.1469 31.5112C38.4556 31.078 37.6208 30.9367 36.8255 31.1183C36.0302 31.3 35.3395 31.7897 34.9049 32.48C34.6478 32.8897 34.4896 33.3537 34.4429 33.8352C34.1965 36.064 33.9445 37.3688 34.8741 38.6904Z" fill="#E4897B"/>
<path d="M37.7021 35.0252C37.6601 35.2016 37.7413 35.3668 37.8617 35.3864C37.9821 35.406 38.0997 35.2744 38.1417 35.1064C38.1837 34.9384 38.0997 34.7648 37.9849 34.7452C37.8701 34.7256 37.7357 34.8432 37.7021 35.0252Z" fill="#263238"/>
<path d="M39.7432 35.3723C39.7012 35.5487 39.7852 35.7167 39.9 35.7363C40.0148 35.7559 40.1408 35.6243 40.18 35.4563C40.2192 35.2883 40.138 35.1119 40.0204 35.0923C39.9028 35.0727 39.774 35.2015 39.7432 35.3723Z" fill="#263238"/>
<path d="M39.0798 35.35C39.2011 35.9349 39.4027 36.5003 39.679 37.03C39.5398 37.0979 39.3874 37.1344 39.2325 37.1368C39.0777 37.1392 38.9242 37.1075 38.783 37.044L39.0798 35.35Z" fill="#DE5753"/>
<path d="M37.1813 34.2551C37.2004 34.2607 37.2206 34.2616 37.2401 34.2577C37.2596 34.2538 37.2778 34.2452 37.2933 34.2327C37.3889 34.1373 37.5057 34.0658 37.6341 34.024C37.7626 33.9821 37.899 33.9711 38.0325 33.9919C38.0461 33.9952 38.0602 33.9959 38.0741 33.9937C38.0879 33.9916 38.1012 33.9867 38.1132 33.9795C38.1252 33.9722 38.1356 33.9626 38.1438 33.9513C38.1521 33.94 38.158 33.9271 38.1613 33.9135C38.1673 33.8861 38.1625 33.8574 38.1479 33.8334C38.1333 33.8094 38.11 33.792 38.0829 33.7847C37.9156 33.7538 37.7433 33.7631 37.5802 33.8118C37.4171 33.8604 37.2679 33.9471 37.1449 34.0647C37.1254 34.085 37.1145 34.1121 37.1145 34.1403C37.1145 34.1685 37.1254 34.1956 37.1449 34.2159C37.1543 34.2312 37.1667 34.2446 37.1813 34.2551Z" fill="#263238"/>
<path d="M38.3293 37.94C38.0644 37.9357 37.8045 37.8672 37.5719 37.7404C37.3392 37.6136 37.1408 37.4323 36.9937 37.212C36.9897 37.2056 36.987 37.1985 36.9858 37.191C36.9846 37.1836 36.9849 37.1759 36.9868 37.1686C36.9886 37.1613 36.9919 37.1544 36.9965 37.1484C37.001 37.1424 37.0067 37.1373 37.0133 37.1336C37.0256 37.1261 37.0404 37.1237 37.0545 37.1268C37.0685 37.13 37.0809 37.1384 37.0889 37.1504C37.2298 37.3509 37.4156 37.5158 37.6314 37.632C37.8472 37.7481 38.0871 37.8124 38.3321 37.8196C38.3465 37.8196 38.3603 37.8251 38.3707 37.835C38.3812 37.8449 38.3874 37.8584 38.3881 37.8728C38.3874 37.8867 38.3816 37.8998 38.3718 37.9097C38.3619 37.9195 38.3488 37.9253 38.3349 37.926L38.3293 37.94Z" fill="#263238"/>
<path d="M40.74 34.818C40.7586 34.829 40.7799 34.8348 40.8016 34.8348C40.8284 34.8264 40.8511 34.8081 40.8651 34.7837C40.8791 34.7594 40.8834 34.7306 40.8772 34.7032C40.8337 34.538 40.751 34.3857 40.6359 34.2594C40.5208 34.1331 40.3769 34.0366 40.2164 33.978C40.1896 33.9701 40.1609 33.973 40.1363 33.9861C40.1117 33.9992 40.0932 34.0214 40.0848 34.048C40.0768 34.0751 40.0796 34.1042 40.0927 34.1293C40.1057 34.1544 40.128 34.1734 40.1548 34.1824C40.2801 34.2325 40.392 34.3113 40.4815 34.4125C40.571 34.5136 40.6355 34.6342 40.67 34.7648C40.6772 34.7781 40.6872 34.7898 40.6992 34.799C40.7113 34.8081 40.7252 34.8146 40.74 34.818Z" fill="#263238"/>
<path d="M36.5429 31.3431V32.3399C36.3669 32.3991 36.2196 32.5225 36.1303 32.6854C36.0411 32.8483 36.0165 33.0389 36.0613 33.2191C36.2769 34.0871 35.6525 35.3135 34.9553 35.7391C34.9553 35.7391 34.9777 35.3779 34.6753 35.4255C34.3729 35.4731 34.2189 37.3519 34.7005 38.3123C34.7005 38.3123 33.9053 37.3995 33.6421 35.3779C33.3957 33.5075 33.5245 31.9899 33.9809 31.3347L36.5429 31.3431Z" fill="#263238"/>
<path d="M33.1661 35.4816C33.326 36.0249 33.6944 36.4829 34.1909 36.7556C34.8517 37.1112 35.3473 36.5568 35.3109 35.8484C35.2661 35.2156 34.8741 34.2524 34.1405 34.1964C33.4069 34.1404 32.9757 34.8124 33.1661 35.4816Z" fill="#E4897B"/>
<path d="M33.53 33.0399C33.53 33.0399 32.8384 31.3796 34.65 30.1616C36.4616 28.9436 40.7596 30.3632 41.062 31.3516C41.3644 32.34 38.1136 34.1347 33.53 33.0399Z" fill="#263238"/>
<path d="M34.6416 41.4511L37.3828 42.9519L37.758 40.9023L39.6788 42.1511V44.7691L37.646 43.5567L36.218 45.6959L33.3984 42.5991L34.6416 41.4511Z" fill="#1B7A45"/>
<path d="M40.8679 62.724L38.7096 62.8435C38.5305 62.8534 38.3933 63.0066 38.4032 63.1858L38.484 64.6451C38.494 64.8242 38.6472 64.9614 38.8263 64.9515L40.9846 64.8319C41.1637 64.822 41.3009 64.6688 41.2909 64.4897L41.2101 63.0303C41.2002 62.8512 41.047 62.714 40.8679 62.724Z" fill="white"/>
<path opacity="0.5" d="M34.6416 41.4511L37.3828 42.9519L37.758 40.9023L39.6788 42.1511V44.7691L37.646 43.5567L36.218 45.6959L33.3984 42.5991L34.6416 41.4511Z" fill="white"/>
<path opacity="0.2" d="M36.5428 59.4887C35.728 60.7151 33.1212 60.7067 32.1412 60.0291C31.99 57.6911 31.7016 55.1319 31.3796 52.7323L36.5428 59.4887Z" fill="black"/>
<path d="M32.2505 50.0471C32.2505 50.0471 32.8301 53.8215 33.3985 54.5579C33.9669 55.2943 45.7185 61.7203 45.7185 61.7203L49.7813 61.4263L51.6489 63.5683C51.6489 63.5683 46.2365 64.4083 45.6457 64.2459C45.2852 64.1461 44.9354 64.0111 44.6013 63.8427C44.6013 63.8427 32.2813 58.9903 31.2453 57.8815C30.2093 56.7727 29.0305 51.0803 29.0305 51.0803L32.2505 50.0471Z" fill="#E4897B"/>
<path d="M29.8593 43.2572C32.0097 42.8092 33.1213 51.7328 33.1213 51.7328L28.7225 52.8528C28.7225 52.8528 27.2133 43.8116 29.8593 43.2572Z" fill="#1B7A45"/>
<path opacity="0.5" d="M29.8593 43.2572C32.0097 42.8092 33.1213 51.7328 33.1213 51.7328L28.7225 52.8528C28.7225 52.8528 27.2133 43.8116 29.8593 43.2572Z" fill="white"/>
<path d="M28.4648 52.64L33.3984 51.4584V52.3068L28.686 53.6732L28.4648 52.64Z" fill="#1B7A45"/>
<path d="M45.3601 108.36V69.9776C45.3604 68.3165 44.8512 66.6952 43.9013 65.3324L42.5601 63.4116H66.3881L67.7293 65.3324C68.6792 66.6952 69.1884 68.3165 69.1881 69.9776V107.996" stroke="#263238" stroke-width="6" stroke-linecap="round" stroke-linejoin="round"/>
<path d="M95.998 116.774C97.3604 116.774 98.4648 115.67 98.4648 114.307C98.4648 112.945 97.3604 111.84 95.998 111.84C94.6357 111.84 93.5312 112.945 93.5312 114.307C93.5312 115.67 94.6357 116.774 95.998 116.774Z" fill="#263238"/>
<path opacity="0.4" d="M97.2328 114.307C97.2333 114.063 97.1614 113.824 97.026 113.62C96.8907 113.417 96.698 113.258 96.4725 113.164C96.2469 113.07 95.9985 113.046 95.7588 113.093C95.5191 113.14 95.2988 113.258 95.1258 113.43C94.9529 113.603 94.835 113.823 94.7871 114.062C94.7392 114.302 94.7635 114.55 94.8569 114.776C94.9503 115.002 95.1085 115.195 95.3117 115.331C95.5148 115.467 95.7536 115.539 95.998 115.539C96.16 115.54 96.3205 115.508 96.4703 115.446C96.6201 115.384 96.7563 115.294 96.8709 115.179C96.9856 115.065 97.0766 114.929 97.1387 114.779C97.2008 114.63 97.2328 114.469 97.2328 114.307Z" fill="white"/>
<path d="M95.7012 114.856C95.5088 114.856 95.3211 114.797 95.1634 114.687C95.0057 114.576 94.8856 114.421 94.8192 114.24L93.366 110.258H96.6392V113.918C96.6392 114.167 96.5403 114.405 96.3644 114.581C96.1885 114.757 95.9499 114.856 95.7012 114.856Z" fill="#263238"/>
<path opacity="0.2" d="M95.7012 114.856C95.5088 114.856 95.3211 114.797 95.1634 114.687C95.0057 114.576 94.8856 114.421 94.8192 114.24L93.366 110.258H96.6392V113.918C96.6392 114.167 96.5403 114.405 96.3644 114.581C96.1885 114.757 95.9499 114.856 95.7012 114.856Z" fill="white"/>
<path d="M68.5581 116.774C69.9205 116.774 71.0249 115.67 71.0249 114.307C71.0249 112.945 69.9205 111.84 68.5581 111.84C67.1957 111.84 66.0913 112.945 66.0913 114.307C66.0913 115.67 67.1957 116.774 68.5581 116.774Z" fill="#263238"/>
<path opacity="0.4" d="M69.7928 114.307C69.7934 114.063 69.7214 113.824 69.5861 113.62C69.4508 113.417 69.2581 113.258 69.0325 113.164C68.8069 113.07 68.5586 113.046 68.3189 113.093C68.0792 113.14 67.8589 113.258 67.6859 113.43C67.5129 113.603 67.395 113.823 67.3472 114.062C67.2993 114.302 67.3236 114.55 67.417 114.776C67.5103 115.002 67.6686 115.195 67.8717 115.331C68.0749 115.467 68.3137 115.539 68.558 115.539C68.7201 115.54 68.8806 115.508 69.0304 115.446C69.1802 115.384 69.3163 115.294 69.431 115.179C69.5457 115.065 69.6367 114.929 69.6988 114.779C69.7609 114.63 69.7928 114.469 69.7928 114.307Z" fill="white"/>
<path d="M68.2612 114.856C68.0689 114.856 67.8812 114.797 67.7235 114.687C67.5658 114.576 67.4456 114.421 67.3792 114.24L65.926 110.258H69.1992V113.918C69.1992 114.167 69.1004 114.405 68.9245 114.581C68.7486 114.757 68.51 114.856 68.2612 114.856Z" fill="#263238"/>
<path opacity="0.2" d="M68.2612 114.856C68.0689 114.856 67.8812 114.797 67.7235 114.687C67.5658 114.576 67.4456 114.421 67.3792 114.24L65.926 110.258H69.1992V113.918C69.1992 114.167 69.1004 114.405 68.9245 114.581C68.7486 114.757 68.51 114.856 68.2612 114.856Z" fill="white"/>
<path d="M100.24 107.388V109.718C100.24 109.927 100.157 110.127 100.01 110.274C99.8621 110.422 99.662 110.505 99.4533 110.505H44.3129C44.1043 110.505 43.9041 110.422 43.7566 110.274C43.609 110.127 43.5261 109.927 43.5261 109.718V107.388H100.24Z" fill="#263238"/>
<path opacity="0.4" d="M100.24 107.388V109.718C100.24 109.927 100.157 110.127 100.01 110.274C99.8621 110.422 99.662 110.505 99.4533 110.505H44.3129C44.1043 110.505 43.9041 110.422 43.7566 110.274C43.609 110.127 43.5261 109.927 43.5261 109.718V107.388H100.24Z" fill="white"/>
<path opacity="0.2" d="M80.6401 107.388V109.718C80.6401 109.927 80.5572 110.127 80.4097 110.274C80.2621 110.422 80.062 110.505 79.8533 110.505H44.3129C44.1042 110.505 43.9041 110.422 43.7566 110.274C43.609 110.127 43.5261 109.927 43.5261 109.718V107.388H80.6401Z" fill="white"/>
<path d="M76.1182 116.774C77.4805 116.774 78.585 115.67 78.585 114.307C78.585 112.945 77.4805 111.84 76.1182 111.84C74.7558 111.84 73.6514 112.945 73.6514 114.307C73.6514 115.67 74.7558 116.774 76.1182 116.774Z" fill="#263238"/>
<path opacity="0.6" d="M77.3529 114.307C77.3535 114.063 77.2815 113.824 77.1462 113.62C77.0108 113.417 76.8182 113.258 76.5926 113.164C76.367 113.07 76.1186 113.046 75.8789 113.093C75.6392 113.14 75.4189 113.258 75.246 113.43C75.073 113.603 74.9551 113.823 74.9072 114.062C74.8594 114.302 74.8837 114.55 74.977 114.776C75.0704 115.002 75.2287 115.195 75.4318 115.331C75.6349 115.467 75.8738 115.539 76.1181 115.539C76.2801 115.54 76.4406 115.508 76.5904 115.446C76.7402 115.384 76.8764 115.294 76.9911 115.179C77.1058 115.065 77.1968 114.929 77.2588 114.779C77.3209 114.63 77.3529 114.469 77.3529 114.307Z" fill="white"/>
<path d="M75.8213 114.856C75.6289 114.856 75.4412 114.797 75.2835 114.687C75.1258 114.576 75.0057 114.421 74.9393 114.24L73.4861 110.258H76.7593V113.918C76.7593 114.167 76.6605 114.405 76.4845 114.581C76.3086 114.757 76.0701 114.856 75.8213 114.856Z" fill="#263238"/>
<path opacity="0.4" d="M75.8213 114.856C75.6289 114.856 75.4412 114.797 75.2835 114.687C75.1258 114.576 75.0057 114.421 74.9393 114.24L73.4861 110.258H76.7593V113.918C76.7593 114.167 76.6605 114.405 76.4845 114.581C76.3086 114.757 76.0701 114.856 75.8213 114.856Z" fill="white"/>
<path d="M48.678 116.774C50.0404 116.774 51.1448 115.67 51.1448 114.307C51.1448 112.945 50.0404 111.84 48.678 111.84C47.3156 111.84 46.2112 112.945 46.2112 114.307C46.2112 115.67 47.3156 116.774 48.678 116.774Z" fill="#263238"/>
<path opacity="0.6" d="M49.913 114.307C49.9135 114.063 49.8416 113.824 49.7062 113.62C49.5709 113.417 49.3782 113.258 49.1526 113.164C48.9271 113.07 48.6787 113.046 48.439 113.093C48.1993 113.14 47.979 113.258 47.806 113.43C47.633 113.603 47.5152 113.823 47.4673 114.062C47.4194 114.302 47.4437 114.55 47.5371 114.776C47.6305 115.002 47.7887 115.195 47.9918 115.331C48.195 115.467 48.4338 115.539 48.6782 115.539C48.8402 115.54 49.0007 115.508 49.1505 115.446C49.3003 115.384 49.4364 115.294 49.5511 115.179C49.6658 115.065 49.7568 114.929 49.8189 114.779C49.881 114.63 49.913 114.469 49.913 114.307Z" fill="white"/>
<path d="M48.3813 114.856C48.189 114.856 48.0013 114.797 47.8436 114.687C47.6859 114.576 47.5658 114.421 47.4993 114.24L46.0461 110.258H49.3193V113.918C49.3193 114.167 49.2205 114.405 49.0446 114.581C48.8687 114.757 48.6301 114.856 48.3813 114.856Z" fill="#263238"/>
<path opacity="0.4" d="M48.3813 114.856C48.189 114.856 48.0013 114.797 47.8436 114.687C47.6859 114.576 47.5658 114.421 47.4993 114.24L46.0461 110.258H49.3193V113.918C49.3193 114.167 49.2205 114.405 49.0446 114.581C48.8687 114.757 48.6301 114.856 48.3813 114.856Z" fill="white"/>
<path d="M76.4652 89.3143H50.3552V107.388H76.4652V89.3143Z" fill="#1B7A45"/>
<path opacity="0.4" d="M76.4652 89.3143H50.3552V107.388H76.4652V89.3143Z" fill="white"/>
<path opacity="0.2" d="M62.4708 89.3143H50.3552V107.388H62.4708V89.3143Z" fill="white"/>
<path opacity="0.2" d="M61.3256 103.566H59.8108C59.6686 103.566 59.5532 103.682 59.5532 103.824V105.893C59.5532 106.035 59.6686 106.151 59.8108 106.151H61.3256C61.4679 106.151 61.5832 106.035 61.5832 105.893V103.824C61.5832 103.682 61.4679 103.566 61.3256 103.566Z" fill="black"/>
<path opacity="0.2" d="M58.593 103.566H57.0782C56.9359 103.566 56.8206 103.682 56.8206 103.824V105.893C56.8206 106.035 56.9359 106.151 57.0782 106.151H58.593C58.7352 106.151 58.8506 106.035 58.8506 105.893V103.824C58.8506 103.682 58.7352 103.566 58.593 103.566Z" fill="black"/>
<path opacity="0.4" d="M70.8513 89.3143H69.3757V91.1987H70.8513V89.3143Z" fill="black"/>
<path opacity="0.2" d="M74.8862 97.0311H64.7222V99.3943H74.8862V97.0311Z" fill="black"/>
<path opacity="0.2" d="M54.6196 90.2551H51.1448V93.7299H54.6196V90.2551Z" fill="black"/>
<path d="M79.1307 71.2404H53.0208V89.3144H79.1307V71.2404Z" fill="#1B7A45"/>
<path opacity="0.4" d="M79.1307 71.2404H53.0208V89.3144H79.1307V71.2404Z" fill="black"/>
<path opacity="0.2" d="M65.1364 71.2404H53.0208V89.3144H65.1364V71.2404Z" fill="white"/>
<path opacity="0.2" d="M63.9941 85.4924H62.4793C62.337 85.4924 62.2217 85.6078 62.2217 85.75V87.8192C62.2217 87.9615 62.337 88.0768 62.4793 88.0768H63.9941C64.1363 88.0768 64.2517 87.9615 64.2517 87.8192V85.75C64.2517 85.6078 64.1363 85.4924 63.9941 85.4924Z" fill="black"/>
<path opacity="0.2" d="M61.2612 85.4924H59.7464C59.6041 85.4924 59.4888 85.6078 59.4888 85.75V87.8192C59.4888 87.9615 59.6041 88.0768 59.7464 88.0768H61.2612C61.4034 88.0768 61.5188 87.9615 61.5188 87.8192V85.75C61.5188 85.6078 61.4034 85.4924 61.2612 85.4924Z" fill="black"/>
<path opacity="0.4" d="M73.5169 71.2404H72.0413V73.1248H73.5169V71.2404Z" fill="black"/>
<path opacity="0.2" d="M77.5517 78.9572H67.3877V81.3204H77.5517V78.9572Z" fill="black"/>
<path opacity="0.2" d="M57.288 72.1812H53.8132V75.656H57.288V72.1812Z" fill="black"/>
<path d="M95.1132 71.2404H69.0032V89.3144H95.1132V71.2404Z" fill="#1B7A45"/>
<path opacity="0.4" d="M95.1132 71.2404H69.0032V89.3144H95.1132V71.2404Z" fill="white"/>
<path opacity="0.2" d="M81.1188 71.2404H69.0032V89.3144H81.1188V71.2404Z" fill="white"/>
<path opacity="0.2" d="M79.9765 85.4924H78.4617C78.3194 85.4924 78.2041 85.6078 78.2041 85.75V87.8192C78.2041 87.9615 78.3194 88.0768 78.4617 88.0768H79.9765C80.1188 88.0768 80.2341 87.9615 80.2341 87.8192V85.75C80.2341 85.6078 80.1188 85.4924 79.9765 85.4924Z" fill="black"/>
<path opacity="0.2" d="M77.2436 85.4924H75.7288C75.5865 85.4924 75.4712 85.6078 75.4712 85.75V87.8192C75.4712 87.9615 75.5865 88.0768 75.7288 88.0768H77.2436C77.3859 88.0768 77.5012 87.9615 77.5012 87.8192V85.75C77.5012 85.6078 77.3859 85.4924 77.2436 85.4924Z" fill="black"/>
<path opacity="0.4" d="M89.4993 71.2404H88.0237V73.1248H89.4993V71.2404Z" fill="black"/>
<path opacity="0.2" d="M93.5341 78.9572H83.3701V81.3204H93.5341V78.9572Z" fill="black"/>
<path opacity="0.2" d="M73.2705 72.1812H69.7957V75.656H73.2705V72.1812Z" fill="black"/>
<path d="M86.0831 53.1664H59.9731V71.2404H86.0831V53.1664Z" fill="#1B7A45"/>
<path opacity="0.2" d="M72.0887 53.1664H59.9731V71.2404H72.0887V53.1664Z" fill="white"/>
<path opacity="0.2" d="M70.9435 67.4183H69.4287C69.2865 67.4183 69.1711 67.5337 69.1711 67.6759V69.7451C69.1711 69.8874 69.2865 70.0027 69.4287 70.0027H70.9435C71.0858 70.0027 71.2011 69.8874 71.2011 69.7451V67.6759C71.2011 67.5337 71.0858 67.4183 70.9435 67.4183Z" fill="black"/>
<path opacity="0.2" d="M68.2136 67.4183H66.6988C66.5565 67.4183 66.4412 67.5337 66.4412 67.6759V69.7451C66.4412 69.8874 66.5565 70.0027 66.6988 70.0027H68.2136C68.3558 70.0027 68.4712 69.8874 68.4712 69.7451V67.6759C68.4712 67.5337 68.3558 67.4183 68.2136 67.4183Z" fill="black"/>
<path opacity="0.4" d="M80.4693 53.1664H78.9937V55.0508H80.4693V53.1664Z" fill="black"/>
<path opacity="0.2" d="M84.5041 60.8832H74.3401V63.2464H84.5041V60.8832Z" fill="black"/>
<path opacity="0.2" d="M64.2377 54.1072H60.7629V57.582H64.2377V54.1072Z" fill="black"/>
<path d="M93.0805 89.3143H66.9705V107.388H93.0805V89.3143Z" fill="#263238"/>
<path opacity="0.2" d="M93.0805 89.3143H66.9705V107.388H93.0805V89.3143Z" fill="white"/>
<path opacity="0.2" d="M79.0861 89.3143H66.9705V107.388H79.0861V89.3143Z" fill="white"/>
<path opacity="0.2" d="M77.9409 103.566H76.4261C76.2838 103.566 76.1685 103.682 76.1685 103.824V105.893C76.1685 106.035 76.2838 106.151 76.4261 106.151H77.9409C78.0831 106.151 78.1985 106.035 78.1985 105.893V103.824C78.1985 103.682 78.0831 103.566 77.9409 103.566Z" fill="black"/>
<path opacity="0.2" d="M75.208 103.566H73.6932C73.5509 103.566 73.4355 103.682 73.4355 103.824V105.893C73.4355 106.035 73.5509 106.151 73.6932 106.151H75.208C75.3502 106.151 75.4655 106.035 75.4655 105.893V103.824C75.4655 103.682 75.3502 103.566 75.208 103.566Z" fill="black"/>
<path opacity="0.4" d="M87.4666 89.3143H85.991V91.1987H87.4666V89.3143Z" fill="black"/>
<path opacity="0.2" d="M91.5012 97.0311H81.3372V99.3943H91.5012V97.0311Z" fill="black"/>
<path opacity="0.2" d="M71.2348 90.2551H67.76V93.7299H71.2348V90.2551Z" fill="black"/>
</svg>
